<?xml version="1.0" encoding="UTF-8" standalone="no"?>
<!DOCTYPE svg PUBLIC "-//W3C//DTD SVG 1.1//EN"
 "http://www.w3.org/Graphics/SVG/1.1/DTD/svg11.dtd">
<!-- Generated by graphviz version 2.40.1 (20161225.0304)
 -->
<!-- Title: G Pages: 1 -->
<svg width="5071pt" height="334pt"
 viewBox="0.00 0.00 5071.00 334.22" xmlns="http://www.w3.org/2000/svg" xmlns:xlink="http://www.w3.org/1999/xlink">
<g id="graph0" class="graph" transform="scale(1 1) rotate(0) translate(4 330.2203)">
<title>G</title>
<polygon fill="#ffffff" stroke="transparent" points="-4,4 -4,-330.2203 5067,-330.2203 5067,4 -4,4"/>
<g id="clust1" class="cluster">
<title>cluster_G</title>
<path fill="#808080" fill-opacity="0.094118" stroke="#000000" d="M20,-8C20,-8 5043,-8 5043,-8 5049,-8 5055,-14 5055,-20 5055,-20 5055,-306.2203 5055,-306.2203 5055,-312.2203 5049,-318.2203 5043,-318.2203 5043,-318.2203 20,-318.2203 20,-318.2203 14,-318.2203 8,-312.2203 8,-306.2203 8,-306.2203 8,-20 8,-20 8,-14 14,-8 20,-8"/>
</g>
<g id="clust2" class="cluster">
<title>cluster_detectron__ops__collect_and_distribute_fpn_rpn_proposals</title>
<path fill="#808080" fill-opacity="0.094118" stroke="#000000" d="M2757,-116.7401C2757,-116.7401 5035,-116.7401 5035,-116.7401 5041,-116.7401 5047,-122.7401 5047,-128.7401 5047,-128.7401 5047,-197.4802 5047,-197.4802 5047,-203.4802 5041,-209.4802 5035,-209.4802 5035,-209.4802 2757,-209.4802 2757,-209.4802 2751,-209.4802 2745,-203.4802 2745,-197.4802 2745,-197.4802 2745,-128.7401 2745,-128.7401 2745,-122.7401 2751,-116.7401 2757,-116.7401"/>
<text text-anchor="middle" x="3896" y="-194.2802" font-family="Times,serif" font-size="14.00" fill="#000000">detectron.ops.collect_and_distribute_fpn_rpn_proposals</text>
</g>
<g id="clust3" class="cluster">
<title>cluster_detectron__ops__collect_and_distribute_fpn_rpn_proposals__CollectAndDistributeFpnRpnProposalsOp</title>
<path fill="#808080" fill-opacity="0.094118" stroke="#000000" d="M3525,-217.4802C3525,-217.4802 5035,-217.4802 5035,-217.4802 5041,-217.4802 5047,-223.4802 5047,-229.4802 5047,-229.4802 5047,-298.2203 5047,-298.2203 5047,-304.2203 5041,-310.2203 5035,-310.2203 5035,-310.2203 3525,-310.2203 3525,-310.2203 3519,-310.2203 3513,-304.2203 3513,-298.2203 3513,-298.2203 3513,-229.4802 3513,-229.4802 3513,-223.4802 3519,-217.4802 3525,-217.4802"/>
<text text-anchor="middle" x="4280" y="-295.0203" font-family="Times,serif" font-size="14.00" fill="#000000">detectron.ops.collect_and_distribute_fpn_rpn_proposals.CollectAndDistributeFpnRpnProposalsOp</text>
</g>
<g id="clust4" class="cluster">
<title>cluster_detectron__ops__generate_proposal_labels</title>
<path fill="#808080" fill-opacity="0.094118" stroke="#000000" d="M2881,-217.4802C2881,-217.4802 3493,-217.4802 3493,-217.4802 3499,-217.4802 3505,-223.4802 3505,-229.4802 3505,-229.4802 3505,-298.2203 3505,-298.2203 3505,-304.2203 3499,-310.2203 3493,-310.2203 3493,-310.2203 2881,-310.2203 2881,-310.2203 2875,-310.2203 2869,-304.2203 2869,-298.2203 2869,-298.2203 2869,-229.4802 2869,-229.4802 2869,-223.4802 2875,-217.4802 2881,-217.4802"/>
<text text-anchor="middle" x="3187" y="-295.0203" font-family="Times,serif" font-size="14.00" fill="#000000">detectron.ops.generate_proposal_labels</text>
</g>
<g id="clust5" class="cluster">
<title>cluster_detectron__ops__generate_proposal_labels__GenerateProposalLabelsOp</title>
<path fill="#808080" fill-opacity="0.094118" stroke="#000000" d="M2237,-217.4802C2237,-217.4802 2849,-217.4802 2849,-217.4802 2855,-217.4802 2861,-223.4802 2861,-229.4802 2861,-229.4802 2861,-298.2203 2861,-298.2203 2861,-304.2203 2855,-310.2203 2849,-310.2203 2849,-310.2203 2237,-310.2203 2237,-310.2203 2231,-310.2203 2225,-304.2203 2225,-298.2203 2225,-298.2203 2225,-229.4802 2225,-229.4802 2225,-223.4802 2231,-217.4802 2237,-217.4802"/>
<text text-anchor="middle" x="2543" y="-295.0203" font-family="Times,serif" font-size="14.00" fill="#000000">detectron.ops.generate_proposal_labels.GenerateProposalLabelsOp</text>
</g>
<g id="clust6" class="cluster">
<title>cluster_detectron__ops__generate_proposals</title>
<path fill="#808080" fill-opacity="0.094118" stroke="#000000" d="M1047,-16C1047,-16 2215,-16 2215,-16 2221,-16 2227,-22 2227,-28 2227,-28 2227,-96.7401 2227,-96.7401 2227,-102.7401 2221,-108.7401 2215,-108.7401 2215,-108.7401 1047,-108.7401 1047,-108.7401 1041,-108.7401 1035,-102.7401 1035,-96.7401 1035,-96.7401 1035,-28 1035,-28 1035,-22 1041,-16 1047,-16"/>
<text text-anchor="middle" x="1631" y="-93.5401" font-family="Times,serif" font-size="14.00" fill="#000000">detectron.ops.generate_proposals</text>
</g>
<g id="clust7" class="cluster">
<title>cluster_detectron__ops__generate_proposals__GenerateProposalsOp</title>
<path fill="#808080" fill-opacity="0.094118" stroke="#000000" d="M1047,-116.7401C1047,-116.7401 2205,-116.7401 2205,-116.7401 2211,-116.7401 2217,-122.7401 2217,-128.7401 2217,-128.7401 2217,-298.2203 2217,-298.2203 2217,-304.2203 2211,-310.2203 2205,-310.2203 2205,-310.2203 1047,-310.2203 1047,-310.2203 1041,-310.2203 1035,-304.2203 1035,-298.2203 1035,-298.2203 1035,-128.7401 1035,-128.7401 1035,-122.7401 1041,-116.7401 1047,-116.7401"/>
<text text-anchor="middle" x="1626" y="-295.0203" font-family="Times,serif" font-size="14.00" fill="#000000">detectron.ops.generate_proposals.GenerateProposalsOp</text>
</g>
<!-- detectron__ops__collect_and_distribute_fpn_rpn_proposals -->
<g id="node1" class="node">
<title>detectron__ops__collect_and_distribute_fpn_rpn_proposals</title>
<ellipse fill="#ffffff" fill-opacity="0.698039" stroke="#000000" cx="816" cy="-252.3503" rx="208.7631" ry="18"/>
<text text-anchor="middle" x="816" y="-248.6503" font-family="Times,serif" font-size="14.00" fill="#000000">detectron.ops.collect_and_distribute_fpn_rpn_proposals</text>
</g>
<!-- detectron__ops__generate_proposal_labels -->
<g id="node2" class="node">
<title>detectron__ops__generate_proposal_labels</title>
<ellipse fill="#ffffff" fill-opacity="0.698039" stroke="#000000" cx="440" cy="-252.3503" rx="149.4735" ry="18"/>
<text text-anchor="middle" x="440" y="-248.6503" font-family="Times,serif" font-size="14.00" fill="#000000">detectron.ops.generate_proposal_labels</text>
</g>
<!-- detectron__ops__generate_proposals -->
<g id="node3" class="node">
<title>detectron__ops__generate_proposals</title>
<ellipse fill="#ffffff" fill-opacity="0.698039" stroke="#000000" cx="144" cy="-252.3503" rx="128.0773" ry="18"/>
<text text-anchor="middle" x="144" y="-248.6503" font-family="Times,serif" font-size="14.00" fill="#000000">detectron.ops.generate_proposals</text>
</g>
<!-- detectron__ops__collect_and_distribute_fpn_rpn_proposals__CollectAndDistributeFpnRpnProposalsOp -->
<g id="node4" class="node">
<title>detectron__ops__collect_and_distribute_fpn_rpn_proposals__CollectAndDistributeFpnRpnProposalsOp</title>
<ellipse fill="#ff6565" fill-opacity="0.698039" stroke="#000000" cx="4664" cy="-151.6102" rx="374.5333" ry="26.7407"/>
<text text-anchor="middle" x="4664" y="-155.4102" font-family="Times,serif" font-size="14.00" fill="#000000">CollectAndDistributeFpnRpnProposalsOp</text>
<text text-anchor="middle" x="4664" y="-140.4102" font-family="Times,serif" font-size="14.00" fill="#000000">(/home/avijit/github/Detectron/detectron/ops/collect_and_distribute_fpn_rpn_proposals.py:31)</text>
</g>
<!-- detectron__ops__collect_and_distribute_fpn_rpn_proposals__collect -->
<g id="node5" class="node">
<title>detectron__ops__collect_and_distribute_fpn_rpn_proposals__collect</title>
<ellipse fill="#ff6565" fill-opacity="0.698039" stroke="#000000" cx="3896" cy="-151.6102" rx="374.5333" ry="26.7407"/>
<text text-anchor="middle" x="3896" y="-155.4102" font-family="Times,serif" font-size="14.00" fill="#000000">collect</text>
<text text-anchor="middle" x="3896" y="-140.4102" font-family="Times,serif" font-size="14.00" fill="#000000">(/home/avijit/github/Detectron/detectron/ops/collect_and_distribute_fpn_rpn_proposals.py:71)</text>
</g>
<!-- detectron__ops__collect_and_distribute_fpn_rpn_proposals__distribute -->
<g id="node6" class="node">
<title>detectron__ops__collect_and_distribute_fpn_rpn_proposals__distribute</title>
<ellipse fill="#ff6565" fill-opacity="0.698039" stroke="#000000" cx="3128" cy="-151.6102" rx="374.5333" ry="26.7407"/>
<text text-anchor="middle" x="3128" y="-155.4102" font-family="Times,serif" font-size="14.00" fill="#000000">distribute</text>
<text text-anchor="middle" x="3128" y="-140.4102" font-family="Times,serif" font-size="14.00" fill="#000000">(/home/avijit/github/Detectron/detectron/ops/collect_and_distribute_fpn_rpn_proposals.py:91)</text>
</g>
<!-- detectron__ops__collect_and_distribute_fpn_rpn_proposals__CollectAndDistributeFpnRpnProposalsOp____init__ -->
<g id="node7" class="node">
<title>detectron__ops__collect_and_distribute_fpn_rpn_proposals__CollectAndDistributeFpnRpnProposalsOp____init__</title>
<ellipse fill="#ff3232" fill-opacity="0.698039" stroke="#000000" cx="4664" cy="-252.3503" rx="374.5333" ry="26.7407"/>
<text text-anchor="middle" x="4664" y="-256.1503" font-family="Times,serif" font-size="14.00" fill="#000000">__init__</text>
<text text-anchor="middle" x="4664" y="-241.1503" font-family="Times,serif" font-size="14.00" fill="#000000">(/home/avijit/github/Detectron/detectron/ops/collect_and_distribute_fpn_rpn_proposals.py:32)</text>
</g>
<!-- detectron__ops__collect_and_distribute_fpn_rpn_proposals__CollectAndDistributeFpnRpnProposalsOp__forward -->
<g id="node8" class="node">
<title>detectron__ops__collect_and_distribute_fpn_rpn_proposals__CollectAndDistributeFpnRpnProposalsOp__forward</title>
<ellipse fill="#ff3232" fill-opacity="0.698039" stroke="#000000" cx="3896" cy="-252.3503" rx="374.5333" ry="26.7407"/>
<text text-anchor="middle" x="3896" y="-256.1503" font-family="Times,serif" font-size="14.00" fill="#000000">forward</text>
<text text-anchor="middle" x="3896" y="-241.1503" font-family="Times,serif" font-size="14.00" fill="#000000">(/home/avijit/github/Detectron/detectron/ops/collect_and_distribute_fpn_rpn_proposals.py:35)</text>
</g>
<!-- detectron__ops__collect_and_distribute_fpn_rpn_proposals__CollectAndDistributeFpnRpnProposalsOp__forward&#45;&gt;detectron__ops__collect_and_distribute_fpn_rpn_proposals__collect -->
<g id="edge1" class="edge">
<title>detectron__ops__collect_and_distribute_fpn_rpn_proposals__CollectAndDistributeFpnRpnProposalsOp__forward&#45;&gt;detectron__ops__collect_and_distribute_fpn_rpn_proposals__collect</title>
<path fill="none" stroke="#000000" d="M3896,-225.3538C3896,-214.1745 3896,-201.0216 3896,-188.9428"/>
<polygon fill="#000000" stroke="#000000" points="3899.5001,-188.6812 3896,-178.6812 3892.5001,-188.6812 3899.5001,-188.6812"/>
</g>
<!-- detectron__ops__collect_and_distribute_fpn_rpn_proposals__CollectAndDistributeFpnRpnProposalsOp__forward&#45;&gt;detectron__ops__collect_and_distribute_fpn_rpn_proposals__distribute -->
<g id="edge2" class="edge">
<title>detectron__ops__collect_and_distribute_fpn_rpn_proposals__CollectAndDistributeFpnRpnProposalsOp__forward&#45;&gt;detectron__ops__collect_and_distribute_fpn_rpn_proposals__distribute</title>
<path fill="none" stroke="#000000" d="M3684.0594,-230.163C3628.0582,-223.8974 3567.7034,-216.7842 3512,-209.4802 3439.6848,-199.9981 3359.9158,-188.1959 3291.9059,-177.7276"/>
<polygon fill="#000000" stroke="#000000" points="3292.376,-174.2588 3281.9592,-176.1933 3291.3087,-181.177 3292.376,-174.2588"/>
</g>
<!-- detectron__ops__generate_proposal_labels__GenerateProposalLabelsOp -->
<g id="node9" class="node">
<title>detectron__ops__generate_proposal_labels__GenerateProposalLabelsOp</title>
<ellipse fill="#b2ff65" fill-opacity="0.698039" stroke="#000000" cx="3187" cy="-252.3503" rx="310.3398" ry="26.7407"/>
<text text-anchor="middle" x="3187" y="-256.1503" font-family="Times,serif" font-size="14.00" fill="#000000">GenerateProposalLabelsOp</text>
<text text-anchor="middle" x="3187" y="-241.1503" font-family="Times,serif" font-size="14.00" fill="#000000">(/home/avijit/github/Detectron/detectron/ops/generate_proposal_labels.py:31)</text>
</g>
<!-- detectron__ops__generate_proposal_labels__GenerateProposalLabelsOp__forward -->
<g id="node10" class="node">
<title>detectron__ops__generate_proposal_labels__GenerateProposalLabelsOp__forward</title>
<ellipse fill="#99ff32" fill-opacity="0.698039" stroke="#000000" cx="2543" cy="-252.3503" rx="310.3398" ry="26.7407"/>
<text text-anchor="middle" x="2543" y="-256.1503" font-family="Times,serif" font-size="14.00" fill="#000000">forward</text>
<text text-anchor="middle" x="2543" y="-241.1503" font-family="Times,serif" font-size="14.00" fill="#000000">(/home/avijit/github/Detectron/detectron/ops/generate_proposal_labels.py:33)</text>
</g>
<!-- detectron__ops__generate_proposals__GenerateProposalsOp -->
<g id="node11" class="node">
<title>detectron__ops__generate_proposals__GenerateProposalsOp</title>
<ellipse fill="#65feff" fill-opacity="0.698039" stroke="#000000" cx="1932" cy="-50.8701" rx="287.1707" ry="26.7407"/>
<text text-anchor="middle" x="1932" y="-54.6701" font-family="Times,serif" font-size="14.00" fill="#000000">GenerateProposalsOp</text>
<text text-anchor="middle" x="1932" y="-39.6701" font-family="Times,serif" font-size="14.00" fill="#000000">(/home/avijit/github/Detectron/detectron/ops/generate_proposals.py:30)</text>
</g>
<!-- detectron__ops__generate_proposals___filter_boxes -->
<g id="node12" class="node">
<title>detectron__ops__generate_proposals___filter_boxes</title>
<ellipse fill="#65feff" fill-opacity="0.698039" stroke="#000000" cx="1335" cy="-50.8701" rx="292.0702" ry="26.7407"/>
<text text-anchor="middle" x="1335" y="-54.6701" font-family="Times,serif" font-size="14.00" fill="#000000">_filter_boxes</text>
<text text-anchor="middle" x="1335" y="-39.6701" font-family="Times,serif" font-size="14.00" fill="#000000">(/home/avijit/github/Detectron/detectron/ops/generate_proposals.py:174)</text>
</g>
<!-- detectron__ops__generate_proposals__GenerateProposalsOp____init__ -->
<g id="node13" class="node">
<title>detectron__ops__generate_proposals__GenerateProposalsOp____init__</title>
<ellipse fill="#32feff" fill-opacity="0.698039" stroke="#000000" cx="1922" cy="-252.3503" rx="287.1707" ry="26.7407"/>
<text text-anchor="middle" x="1922" y="-256.1503" font-family="Times,serif" font-size="14.00" fill="#000000">__init__</text>
<text text-anchor="middle" x="1922" y="-241.1503" font-family="Times,serif" font-size="14.00" fill="#000000">(/home/avijit/github/Detectron/detectron/ops/generate_proposals.py:38)</text>
</g>
<!-- detectron__ops__generate_proposals__GenerateProposalsOp__forward -->
<g id="node14" class="node">
<title>detectron__ops__generate_proposals__GenerateProposalsOp__forward</title>
<ellipse fill="#32feff" fill-opacity="0.698039" stroke="#000000" cx="1330" cy="-252.3503" rx="287.1707" ry="26.7407"/>
<text text-anchor="middle" x="1330" y="-256.1503" font-family="Times,serif" font-size="14.00" fill="#000000">forward</text>
<text text-anchor="middle" x="1330" y="-241.1503" font-family="Times,serif" font-size="14.00" fill="#000000">(/home/avijit/github/Detectron/detectron/ops/generate_proposals.py:45)</text>
</g>
<!-- detectron__ops__generate_proposals__GenerateProposalsOp__proposals_for_one_image -->
<g id="node15" class="node">
<title>detectron__ops__generate_proposals__GenerateProposalsOp__proposals_for_one_image</title>
<ellipse fill="#32feff" fill-opacity="0.698039" stroke="#000000" cx="1335" cy="-151.6102" rx="292.0702" ry="26.7407"/>
<text text-anchor="middle" x="1335" y="-155.4102" font-family="Times,serif" font-size="14.00" fill="#000000">proposals_for_one_image</text>
<text text-anchor="middle" x="1335" y="-140.4102" font-family="Times,serif" font-size="14.00" fill="#000000">(/home/avijit/github/Detectron/detectron/ops/generate_proposals.py:110)</text>
</g>
<!-- detectron__ops__generate_proposals__GenerateProposalsOp__forward&#45;&gt;detectron__ops__generate_proposals__GenerateProposalsOp__proposals_for_one_image -->
<g id="edge3" class="edge">
<title>detectron__ops__generate_proposals__GenerateProposalsOp__forward&#45;&gt;detectron__ops__generate_proposals__GenerateProposalsOp__proposals_for_one_image</title>
<path fill="none" stroke="#000000" d="M1331.3399,-225.3538C1331.8948,-214.1745 1332.5476,-201.0216 1333.1471,-188.9428"/>
<polygon fill="#000000" stroke="#000000" points="1336.6563,-188.8424 1333.6564,-178.6812 1329.6649,-188.4954 1336.6563,-188.8424"/>
</g>
<!-- detectron__ops__generate_proposals__GenerateProposalsOp__proposals_for_one_image&#45;&gt;detectron__ops__generate_proposals___filter_boxes -->
<g id="edge4" class="edge">
<title>detectron__ops__generate_proposals__GenerateProposalsOp__proposals_for_one_image&#45;&gt;detectron__ops__generate_proposals___filter_boxes</title>
<path fill="none" stroke="#000000" d="M1335,-124.6137C1335,-113.4344 1335,-100.2815 1335,-88.2027"/>
<polygon fill="#000000" stroke="#000000" points="1338.5001,-87.941 1335,-77.9411 1331.5001,-87.9411 1338.5001,-87.941"/>
</g>
</g>
</svg>
